HIERARCHY
ROOT joint_Root
{
	OFFSET 0.0 0.0 0.0
	CHANNELS 6 Xposition Yposition Zposition Zrotation Xrotation Yrotation 
	JOINT Hips
	{
		OFFSET 4.5925 91.4895 -427.239
		CHANNELS 6 Xposition Yposition Zposition Zrotation Xrotation Yrotation 
		JOINT Spine
		{
			OFFSET 15.7357 0.0 0.0
			CHANNELS 6 Xposition Yposition Zposition Zrotation Xrotation Yrotation 
			JOINT Chest
			{
				OFFSET 8.98455 -0.406207 0.0
				CHANNELS 6 Xposition Yposition Zposition Zrotation Xrotation Yrotation 
				JOINT Neck
				{
					OFFSET 16.3773 0.0 0.0
					CHANNELS 6 Xposition Yposition Zposition Zrotation Xrotation Yrotation 
					JOINT Head
					{
						OFFSET 6.45672 0.0 0.0
						CHANNELS 6 Xposition Yposition Zposition Zrotation Xrotation Yrotation 
						End Site
						{
							OFFSET 0.0 0.0 0.0
						}
					}
				}
				JOINT Shoulder_L
				{
					OFFSET 12.9942 -0.242716 4.98039
					CHANNELS 6 Xposition Yposition Zposition Zrotation Xrotation Yrotation 
					JOINT UpperArm_L
					{
						OFFSET 5.34809 0.0 0.0
						CHANNELS 6 Xposition Yposition Zposition Zrotation Xrotation Yrotation 
						JOINT LowerArm_L
						{
							OFFSET 24.3286 1.87007e-05 0.0
							CHANNELS 6 Xposition Yposition Zposition Zrotation Xrotation Yrotation 
							JOINT Hand_L
							{
								OFFSET 22.2916 0.0 0.0
								CHANNELS 6 Xposition Yposition Zposition Zrotation Xrotation Yrotation 
								End Site
								{
									OFFSET 0.0 0.0 0.0
								}
							}
						}
					}
				}
				JOINT Shoulder_R
				{
					OFFSET 12.9945 -0.242716 -4.98039
					CHANNELS 6 Xposition Yposition Zposition Zrotation Xrotation Yrotation 
					JOINT UpperArm_R
					{
						OFFSET -5.34813 0.0 0.0
						CHANNELS 6 Xposition Yposition Zposition Zrotation Xrotation Yrotation 
						JOINT LowerArm_R
						{
							OFFSET -24.3289 0.000322201 0.0
							CHANNELS 6 Xposition Yposition Zposition Zrotation Xrotation Yrotation 
							JOINT Hand_R
							{
								OFFSET -22.2915 -0.000108084 0.0
								CHANNELS 6 Xposition Yposition Zposition Zrotation Xrotation Yrotation 
								End Site
								{
									OFFSET 0.0 0.0 0.0
								}
							}
						}
					}
				}
			}
		}
		JOINT UpperLeg_L
		{
			OFFSET -2.19248 -6.46944 0.0
			CHANNELS 6 Xposition Yposition Zposition Zrotation Xrotation Yrotation 
			JOINT LowerLeg_L
			{
				OFFSET 39.0811 0.0 -1.23785e-05
				CHANNELS 6 Xposition Yposition Zposition Zrotation Xrotation Yrotation 
				JOINT Foot_L
				{
					OFFSET 40.9854 0.0 -1.26872e-05
					CHANNELS 6 Xposition Yposition Zposition Zrotation Xrotation Yrotation 
					JOINT Toes_L
					{
						OFFSET 11.7543 0.0 0.0
						CHANNELS 6 Xposition Yposition Zposition Zrotation Xrotation Yrotation 
						End Site
						{
							OFFSET 0.0 0.0 0.0
						}
					}
				}
			}
		}
		JOINT UpperLeg_R
		{
			OFFSET -2.19251 6.46944 0.0
			CHANNELS 6 Xposition Yposition Zposition Zrotation Xrotation Yrotation 
			JOINT LowerLeg_R
			{
				OFFSET -39.0811 -0.00228153 -0.0401928
				CHANNELS 6 Xposition Yposition Zposition Zrotation Xrotation Yrotation 
				JOINT Foot_R
				{
					OFFSET -40.9854 0.0 0.0
					CHANNELS 6 Xposition Yposition Zposition Zrotation Xrotation Yrotation 
					JOINT Toes_R
					{
						OFFSET -11.7543 0.0 0.0
						CHANNELS 6 Xposition Yposition Zposition Zrotation Xrotation Yrotation 
						End Site
						{
							OFFSET 0.0 0.0 0.0
						}
					}
				}
			}
		}
	}
}
MOTION
Frames:	9
Frame Time:	0.0333333
0.000000 0.000000 0.000000 0.000000 0.000000 -0.000000 -2.677660 90.168600 0.712139 87.624000 -4.255760 7.363000 15.735700 0.000005 -0.000001 73.722100 85.156100 -75.834200 8.984550 -0.406207 -0.000000 1.490740 -2.598450 -4.187230 16.377300 -0.000001 -0.000001 7.947990 -3.666050 6.912210 6.456720 -0.000001 -0.000000 1.030850 1.714380 0.842924 12.994200 -0.242716 4.980390 -90.570700 1.635210 -70.759200 5.348090 -0.000007 -0.000001 -67.266500 21.085200 -3.356460 24.328600 0.000019 0.000005 5.260290 22.449400 -13.555500 22.291600 -0.000001 0.000005 14.435600 5.139390 4.194910 12.994500 -0.242716 -4.980390 95.002200 -11.181100 -65.710000 -5.348130 -0.000001 -0.000004 -79.079900 -68.448500 -123.903000 -24.328900 0.000322 -0.000009 -11.257900 -4.154050 -70.009100 -22.291500 -0.000108 -0.000004 44.312500 5.691290 -22.781700 -2.192480 -6.469440 -0.000000 -171.916000 -11.476700 -3.863900 39.081100 -0.000007 -0.000012 -0.273426 0.399792 34.369600 40.985400 -0.000006 -0.000013 -1.590160 4.109120 -72.480300 11.754300 -0.000000 0.000003 -0.000254 -0.002266 -16.662400 -2.192510 6.469440 -0.000001 -179.784000 14.655200 176.962000 -39.081100 -0.002282 -0.040193 0.038272 -0.053720 33.067500 -40.985400 0.000008 0.000006 7.442850 6.524970 -72.887200 -11.754300 -0.000006 -0.000006 -0.001461 -0.021757 -17.457800
0.000000 0.000000 0.000000 0.000000 0.000000 -0.000000 -2.988360 90.209600 0.770736 87.658000 -2.762080 7.109070 15.735700 0.000005 -0.000001 70.876300 85.244100 -73.219000 8.984550 -0.406207 -0.000000 1.166240 -2.979920 -4.651780 16.377300 -0.000001 -0.000001 8.607820 -4.208980 8.100140 6.456720 -0.000001 -0.000000 1.117670 1.893610 1.015860 12.994200 -0.242716 4.980390 -90.303900 0.876822 -70.886000 5.348090 -0.000007 -0.000001 -67.993400 18.703300 -2.432270 24.328600 0.000019 0.000005 5.981740 21.532600 -15.933400 22.291600 -0.000001 0.000005 17.143200 5.121730 4.606350 12.994500 -0.242716 -4.980390 95.793600 -11.442400 -62.911700 -5.348130 -0.000001 -0.000004 -79.854400 -66.283200 -126.635000 -24.328900 0.000322 -0.000009 -8.244120 -3.108880 -69.479200 -22.291500 -0.000108 -0.000004 52.827800 5.648210 -27.362600 -2.192480 -6.469440 -0.000000 -171.824000 -10.866500 -4.256030 39.081100 -0.000007 -0.000012 -0.265574 0.391725 34.136200 40.985400 -0.000006 -0.000013 -1.551230 5.003900 -72.220700 11.754300 -0.000000 0.000003 -0.000237 -0.002135 -16.657700 -2.192510 6.469440 -0.000001 -179.549000 15.337400 176.882000 -39.081100 -0.002282 -0.040193 0.039960 -0.056709 32.884200 -40.985400 0.000008 0.000006 7.371440 5.697480 -72.703100 -11.754300 -0.000006 -0.000006 -0.001461 -0.021759 -17.457900
0.000000 0.000000 0.000000 0.000000 0.000000 -0.000000 -3.358330 90.132800 0.869916 87.340800 -1.994460 7.452740 15.735700 0.000005 -0.000001 68.061700 85.168300 -70.654100 8.984550 -0.406207 -0.000000 1.127340 -3.458690 -5.147350 16.377300 -0.000001 -0.000001 8.949040 -4.258900 7.728560 6.456720 -0.000001 -0.000000 1.333530 1.633730 1.104910 12.994200 -0.242716 4.980390 -90.280100 0.816190 -71.057100 5.348090 -0.000007 -0.000001 -68.367900 16.296900 -0.925054 24.328600 0.000019 0.000005 6.294500 19.033900 -18.689300 22.291600 -0.000001 0.000005 19.118700 5.125370 4.529440 12.994500 -0.242716 -4.980390 95.143500 -10.469600 -63.649400 -5.348130 -0.000001 -0.000004 -69.711300 -65.632900 -114.400000 -24.328900 0.000322 -0.000009 -14.239500 -7.486160 -62.850900 -22.291500 -0.000108 -0.000004 46.153100 5.684850 -23.237900 -2.192480 -6.469440 -0.000000 -171.224000 -10.214700 -4.198570 39.081100 -0.000007 -0.000012 -0.274254 0.398277 34.551900 40.985400 -0.000006 -0.000013 -1.736970 5.307710 -72.384300 11.754300 -0.000000 0.000003 -0.000234 -0.002110 -16.656800 -2.192510 6.469440 -0.000001 -179.206000 16.190600 177.320000 -39.081100 -0.002282 -0.040193 0.041446 -0.058680 33.029700 -40.985400 0.000008 0.000006 7.596730 5.646640 -72.829500 -11.754300 -0.000006 -0.000006 -0.056287 -0.086018 -17.453800
0.000000 0.000000 0.000000 0.000000 0.000000 -0.000000 -3.664980 89.976000 0.936642 86.744100 -2.491560 8.042580 15.735700 0.000005 -0.000001 69.992400 85.008900 -72.856400 8.984550 -0.406207 -0.000000 1.541490 -3.258090 -5.679910 16.377300 -0.000001 -0.000001 8.247880 -3.455910 6.076850 6.456720 -0.000001 -0.000000 1.026490 1.527620 0.468012 12.994200 -0.242716 4.980390 -90.506200 1.435360 -70.573400 5.348090 -0.000007 -0.000001 -67.166000 17.036800 -1.197160 24.328600 0.000019 0.000005 5.107530 14.385900 -19.788000 22.291600 -0.000001 0.000005 19.436400 5.176360 3.303900 12.994500 -0.242716 -4.980390 94.029600 -9.167020 -66.148000 -5.348130 -0.000001 -0.000004 -54.620300 -64.765900 -94.227100 -24.328900 0.000322 -0.000009 -15.711200 -13.017100 -51.319600 -22.291500 -0.000108 -0.000004 34.299500 5.661620 -15.225000 -2.192480 -6.469440 -0.000000 -170.482000 -9.208590 -3.887390 39.081100 -0.000007 -0.000012 -0.305378 0.429527 35.412000 40.985400 -0.000006 -0.000013 -2.321780 4.177870 -72.931200 11.754300 -0.000000 0.000003 -0.000254 -0.002267 -16.662400 -2.192510 6.469440 -0.000001 -178.850000 17.016700 177.935000 -39.081100 -0.002282 -0.040193 0.040848 -0.057053 33.353800 -40.985400 0.000008 0.000006 8.076060 6.739510 -73.237000 -11.754300 -0.000006 -0.000006 -0.058143 -0.087950 -17.441300
0.000000 0.000000 0.000000 0.000000 0.000000 -0.000000 -3.972020 89.808700 0.904180 85.926300 -3.590390 8.468450 15.735700 0.000005 -0.000001 74.921800 85.003500 -78.220400 8.984550 -0.406207 -0.000000 1.823290 -2.427120 -6.553110 16.377300 -0.000001 -0.000001 7.296370 -2.182540 4.018710 6.456720 -0.000001 -0.000000 0.497432 1.686170 0.210072 12.994200 -0.242716 4.980390 -90.815600 2.221710 -69.836400 5.348090 -0.000007 -0.000001 -64.780200 17.686800 -2.129160 24.328600 0.000019 0.000005 5.100200 13.129000 -21.448500 22.291600 -0.000001 0.000005 17.023600 5.219700 2.215900 12.994500 -0.242716 -4.980390 92.975900 -7.902160 -69.290300 -5.348130 -0.000001 -0.000004 -37.063400 -60.617300 -69.278600 -24.328900 0.000322 -0.000009 -13.031500 -17.073800 -38.255300 -22.291500 -0.000108 -0.000004 24.728600 5.494270 -6.033720 -2.192480 -6.469440 -0.000000 -169.554000 -8.425160 -3.724700 39.081100 -0.000007 -0.000012 -0.329244 0.446341 36.415100 40.985400 -0.000006 -0.000013 -3.026260 2.749490 -73.559500 11.754300 -0.000000 0.000003 -0.000273 -0.002402 -16.667300 -2.192510 6.469440 -0.000001 -178.132000 17.338800 178.326000 -39.081100 -0.002282 -0.040193 0.040541 -0.055948 33.653200 -40.985400 0.000008 0.000006 8.628290 7.844080 -73.577700 -11.754300 -0.000006 -0.000006 -0.006600 -0.027303 -17.436400
0.000000 0.000000 0.000000 0.000000 0.000000 -0.000000 -4.305400 89.669900 0.777151 85.247400 -4.760340 8.463510 15.735700 0.000005 -0.000001 79.432600 85.093100 -83.330000 8.984550 -0.406207 -0.000000 1.839770 -1.597490 -7.762050 16.377300 -0.000001 -0.000001 6.281230 -1.004140 1.964510 6.456720 -0.000001 -0.000000 -0.115736 2.139290 0.343422 12.994200 -0.242716 4.980390 -91.047000 2.773320 -69.308900 5.348090 -0.000007 -0.000001 -62.668600 15.893900 -2.385810 24.328600 0.000019 0.000005 7.137220 15.835700 -24.645400 22.291600 -0.000001 0.000005 14.737900 5.219720 2.220150 12.994500 -0.242716 -4.980390 92.021500 -6.600110 -72.933400 -5.348130 -0.000001 -0.000004 -29.703200 -52.942400 -51.473700 -24.328900 0.000322 -0.000009 -11.770300 -22.763900 -28.312200 -22.291500 -0.000108 -0.000004 19.378200 5.243030 1.661300 -2.192480 -6.469440 -0.000000 -168.569000 -8.672450 -3.905350 39.081100 -0.000007 -0.000012 -0.351484 0.462512 37.233600 40.985400 -0.000006 -0.000013 -3.503570 2.182260 -73.976000 11.754300 -0.000000 0.000003 -0.000290 -0.002529 -16.671900 -2.192510 6.469440 -0.000001 -177.201000 17.039700 178.189000 -39.081100 -0.002282 -0.040193 0.040452 -0.055320 33.889200 -40.985400 0.000008 0.000006 9.035370 8.387630 -73.803800 -11.754300 -0.000006 -0.000006 -0.001319 -0.019844 -17.380100
0.000000 0.000000 0.000000 0.000000 0.000000 -0.000000 -4.646540 89.608200 0.581092 84.896800 -5.336030 8.142150 15.735700 0.000005 -0.000001 81.798600 85.222700 -86.273100 8.984550 -0.406207 -0.000000 1.663070 -1.124470 -8.924500 16.377300 -0.000001 -0.000001 4.981380 0.146660 0.138608 6.456720 -0.000001 -0.000000 -0.514170 2.421810 0.160277 12.994200 -0.242716 4.980390 -91.142500 2.971160 -68.955300 5.348090 -0.000007 -0.000001 -61.666500 14.317000 -2.406670 24.328600 0.000019 0.000005 7.722100 15.924600 -26.299200 22.291600 -0.000001 0.000005 16.094700 5.225810 2.065230 12.994500 -0.242716 -4.980390 91.172000 -4.493510 -75.369900 -5.348130 -0.000001 -0.000004 -34.905400 -47.825800 -44.431300 -24.328900 0.000322 -0.000009 -10.390600 -26.660700 -22.226600 -22.291500 -0.000108 -0.000004 18.058200 4.960150 8.143690 -2.192480 -6.469440 -0.000000 -167.936000 -8.990520 -4.355340 39.081100 -0.000007 -0.000012 -0.368814 0.478992 37.596300 40.985400 -0.000006 -0.000013 -3.800510 2.146460 -74.046000 11.754300 -0.000000 0.000003 -0.000313 -0.002697 -16.677900 -2.192510 6.469440 -0.000001 -176.513000 17.068600 177.708000 -39.081100 -0.002282 -0.040193 0.040514 -0.055170 34.006200 -40.985400 0.000008 0.000006 9.407800 8.777610 -73.854400 -11.754300 -0.000006 -0.000006 -0.001280 -0.019312 -17.358400
0.000000 0.000000 0.000000 0.000000 0.000000 -0.000000 -4.934040 89.564200 0.454477 84.762700 -5.016880 8.032740 15.735700 0.000005 -0.000001 81.768400 85.196900 -86.512400 8.984550 -0.406207 -0.000000 1.712700 -1.124630 -9.462570 16.377300 -0.000001 -0.000001 3.563210 1.055520 -1.379960 6.456720 -0.000001 -0.000000 -0.902853 2.657920 -0.427046 12.994200 -0.242716 4.980390 -91.095300 2.874900 -69.134200 5.348090 -0.000007 -0.000001 -62.359700 13.017900 -2.054000 24.328600 0.000019 0.000005 6.568020 13.835100 -25.709600 22.291600 -0.000001 0.000005 19.276400 5.240660 1.680270 12.994500 -0.242716 -4.980390 90.492500 -1.941350 -75.758900 -5.348130 -0.000001 -0.000004 -38.164500 -43.942400 -39.283400 -24.328900 0.000322 -0.000009 -9.042980 -25.069100 -20.584800 -22.291500 -0.000108 -0.000004 17.637300 4.501740 16.577600 -2.192480 -6.469440 -0.000000 -167.670000 -8.681240 -4.766510 39.081100 -0.000007 -0.000012 -0.365087 0.470120 37.833100 40.985400 -0.000006 -0.000013 -3.992220 2.218110 -74.000500 11.754300 -0.000000 0.000003 -0.000282 -0.002470 -16.669800 -2.192510 6.469440 -0.000001 -176.240000 17.729300 177.549000 -39.081100 -0.002282 -0.040193 0.041089 -0.055947 34.041800 -40.985400 0.000008 0.000006 9.752770 8.949890 -74.026300 -11.754300 -0.000006 -0.000006 -0.001288 -0.019418 -17.362800
0.000000 0.000000 0.000000 0.000000 0.000000 -0.000000 -5.092130 89.523500 0.340993 84.450900 -4.241210 7.710980 15.735700 0.000005 -0.000001 78.067000 85.108500 -82.747200 8.984550 -0.406207 -0.000000 1.751100 -1.776560 -9.324740 16.377300 -0.000001 -0.000001 2.447690 1.319600 -1.701140 6.456720 -0.000001 -0.000000 -1.254490 3.494650 -0.743865 12.994200 -0.242716 4.980390 -90.920800 2.521430 -69.930700 5.348090 -0.000007 -0.000001 -63.969200 11.945400 -1.110060 24.328600 0.000019 0.000005 5.027050 11.304500 -24.164400 22.291600 -0.000001 0.000005 21.402000 5.229910 1.955390 12.994500 -0.242716 -4.980390 90.186800 -0.705815 -75.170300 -5.348130 -0.000001 -0.000004 -43.915400 -43.512200 -40.353700 -24.328900 0.000322 -0.000009 -9.114360 -25.852300 -20.197400 -22.291500 -0.000108 -0.000004 16.939000 4.423240 17.852900 -2.192480 -6.469440 -0.000000 -167.357000 -8.201620 -5.559850 39.081100 -0.000007 -0.000012 -0.366661 0.466042 38.194800 40.985400 -0.000006 -0.000013 -4.016640 2.505730 -73.990400 11.754300 -0.000000 0.000003 -0.000273 -0.002407 -16.667500 -2.192510 6.469440 -0.000001 -175.719000 18.244200 177.185000 -39.081100 -0.002282 -0.040193 0.041465 -0.056644 33.975500 -40.985400 0.000008 0.000006 9.788910 8.651040 -74.048400 -11.754300 -0.000006 -0.000006 -0.001353 -0.020304 -17.398700
